<svg width="54" height="54" viewBox="0 0 54 54" fill="none" xmlns="http://www.w3.org/2000/svg">
<g clip-path="url(#clip0_319_6091)">
<path d="M40.5 0H13.5C11.7098 0 9.9929 0.711159 8.72703 1.97703C7.46116 3.2429 6.75 4.95979 6.75 6.75V47.25C6.75 49.0402 7.46116 50.7571 8.72703 52.023C9.9929 53.2888 11.7098 54 13.5 54H40.5C42.2902 54 44.0071 53.2888 45.273 52.023C46.5388 50.7571 47.25 49.0402 47.25 47.25V6.75C47.25 4.95979 46.5388 3.2429 45.273 1.97703C44.0071 0.711159 42.2902 0 40.5 0V0ZM16.875 13.5H37.125C37.5726 13.5 38.0018 13.6778 38.3182 13.9943C38.6347 14.3107 38.8125 14.7399 38.8125 15.1875C38.8125 15.6351 38.6347 16.0643 38.3182 16.3807C38.0018 16.6972 37.5726 16.875 37.125 16.875H16.875C16.4274 16.875 15.9982 16.6972 15.6818 16.3807C15.3653 16.0643 15.1875 15.6351 15.1875 15.1875C15.1875 14.7399 15.3653 14.3107 15.6818 13.9943C15.9982 13.6778 16.4274 13.5 16.875 13.5ZM15.1875 21.9375C15.1875 21.4899 15.3653 21.0607 15.6818 20.7443C15.9982 20.4278 16.4274 20.25 16.875 20.25H37.125C37.5726 20.25 38.0018 20.4278 38.3182 20.7443C38.6347 21.0607 38.8125 21.4899 38.8125 21.9375C38.8125 22.3851 38.6347 22.8143 38.3182 23.1307C38.0018 23.4472 37.5726 23.625 37.125 23.625H16.875C16.4274 23.625 15.9982 23.4472 15.6818 23.1307C15.3653 22.8143 15.1875 22.3851 15.1875 21.9375ZM16.875 27H37.125C37.5726 27 38.0018 27.1778 38.3182 27.4943C38.6347 27.8107 38.8125 28.2399 38.8125 28.6875C38.8125 29.1351 38.6347 29.5643 38.3182 29.8807C38.0018 30.1972 37.5726 30.375 37.125 30.375H16.875C16.4274 30.375 15.9982 30.1972 15.6818 29.8807C15.3653 29.5643 15.1875 29.1351 15.1875 28.6875C15.1875 28.2399 15.3653 27.8107 15.6818 27.4943C15.9982 27.1778 16.4274 27 16.875 27ZM16.875 33.75H27C27.4476 33.75 27.8768 33.9278 28.1932 34.2443C28.5097 34.5607 28.6875 34.9899 28.6875 35.4375C28.6875 35.8851 28.5097 36.3143 28.1932 36.6307C27.8768 36.9472 27.4476 37.125 27 37.125H16.875C16.4274 37.125 15.9982 36.9472 15.6818 36.6307C15.3653 36.3143 15.1875 35.8851 15.1875 35.4375C15.1875 34.9899 15.3653 34.5607 15.6818 34.2443C15.9982 33.9278 16.4274 33.75 16.875 33.75Z" fill="#001855"/>
</g>
<defs>
<clipPath id="clip0_319_6091">
<rect width="54" height="54" fill="white"/>
</clipPath>
</defs>
</svg>
