<svg width="48" height="48" viewBox="0 0 48 48" fill="none" xmlns="http://www.w3.org/2000/svg">
<rect width="48" height="48" fill="#001855"/>
<path d="M28.5 13.5C28.8978 13.5 29.2794 13.658 29.5607 13.9393C29.842 14.2206 30 14.6022 30 15V33C30 33.3978 29.842 33.7794 29.5607 34.0607C29.2794 34.342 28.8978 34.5 28.5 34.5H19.5C19.1022 34.5 18.7206 34.342 18.4393 34.0607C18.158 33.7794 18 33.3978 18 33V15C18 14.6022 18.158 14.2206 18.4393 13.9393C18.7206 13.658 19.1022 13.5 19.5 13.5H28.5ZM19.5 12C18.7044 12 17.9413 12.3161 17.3787 12.8787C16.8161 13.4413 16.5 14.2044 16.5 15V33C16.5 33.7956 16.8161 34.5587 17.3787 35.1213C17.9413 35.6839 18.7044 36 19.5 36H28.5C29.2956 36 30.0587 35.6839 30.6213 35.1213C31.1839 34.5587 31.5 33.7956 31.5 33V15C31.5 14.2044 31.1839 13.4413 30.6213 12.8787C30.0587 12.3161 29.2956 12 28.5 12H19.5Z" fill="white"/>
<path d="M24 33C24.4144 33 24.8118 32.842 25.1049 32.5607C25.3979 32.2794 25.5625 31.8978 25.5625 31.5C25.5625 31.1022 25.3979 30.7206 25.1049 30.4393C24.8118 30.158 24.4144 30 24 30C23.5856 30 23.1882 30.158 22.8951 30.4393C22.6021 30.7206 22.4375 31.1022 22.4375 31.5C22.4375 31.8978 22.6021 32.2794 22.8951 32.5607C23.1882 32.842 23.5856 33 24 33Z" fill="white"/>
</svg>
