<svg width="48" height="48" viewBox="0 0 48 48" fill="none" xmlns="http://www.w3.org/2000/svg">
<rect width="48" height="48" fill="#001855"/>
<path d="M23.25 13.527C21.306 13.6663 19.4391 14.344 17.8583 15.4841C16.2775 16.6242 15.0453 18.1818 14.2996 19.9825C13.5538 21.7832 13.324 23.756 13.6358 25.6799C13.9476 27.6038 14.7887 29.403 16.065 30.876L23.25 23.6895V13.527ZM24.75 13.527V23.25H34.473C34.2923 20.7311 33.2098 18.3616 31.4241 16.5759C29.6384 14.7902 27.2689 13.7077 24.75 13.527ZM34.473 24.75H24.3105L17.1255 31.935C18.5985 33.2109 20.3976 34.0516 22.3213 34.3632C24.245 34.6747 26.2174 34.4448 28.0178 33.6991C29.8183 32.9534 31.3757 31.7213 32.5157 30.1408C33.6558 28.5603 34.3335 26.6938 34.473 24.75ZM12 24C12 20.8174 13.2643 17.7652 15.5147 15.5147C17.7652 13.2643 20.8174 12 24 12C27.1826 12 30.2348 13.2643 32.4853 15.5147C34.7357 17.7652 36 20.8174 36 24C36 27.1826 34.7357 30.2348 32.4853 32.4853C30.2348 34.7357 27.1826 36 24 36C20.8174 36 17.7652 34.7357 15.5147 32.4853C13.2643 30.2348 12 27.1826 12 24Z" fill="white"/>
</svg>
