<svg width="48" height="48" viewBox="0 0 48 48" fill="none" xmlns="http://www.w3.org/2000/svg">
<rect width="48" height="48" fill="#001855"/>
<path d="M29.6139 27.5144C31.0663 25.5325 31.7168 23.0752 31.4353 20.6342C31.1538 18.1932 29.961 15.9484 28.0955 14.3491C26.23 12.7498 23.8295 11.9138 21.3741 12.0085C18.9187 12.1031 16.5896 13.1213 14.8528 14.8594C13.1159 16.5975 12.0993 18.9274 12.0065 21.3828C11.9136 23.8382 12.7513 26.2382 14.352 28.1025C15.9526 29.9668 18.1982 31.158 20.6394 31.4378C23.0806 31.7176 25.5374 31.0653 27.5184 29.6114H27.5169C27.5619 29.6714 27.6099 29.7284 27.6639 29.7839L33.4389 35.5589C33.7201 35.8404 34.1017 35.9986 34.4996 35.9987C34.8975 35.9989 35.2791 35.841 35.5606 35.5597C35.8421 35.2784 36.0003 34.8969 36.0004 34.499C36.0006 34.1011 35.8426 33.7194 35.5614 33.4379L29.7864 27.6629C29.7327 27.6087 29.6751 27.5585 29.6139 27.5129V27.5144ZM30.0009 21.7484C30.0009 22.8318 29.7875 23.9046 29.3729 24.9056C28.9583 25.9065 28.3506 26.816 27.5845 27.5821C26.8184 28.3482 25.9089 28.9558 24.908 29.3704C23.9071 29.785 22.8343 29.9984 21.7509 29.9984C20.6675 29.9984 19.5947 29.785 18.5937 29.3704C17.5928 28.9558 16.6833 28.3482 15.9172 27.5821C15.1511 26.816 14.5435 25.9065 14.1289 24.9056C13.7143 23.9046 13.5009 22.8318 13.5009 21.7484C13.5009 19.5604 14.3701 17.462 15.9172 15.9148C17.4644 14.3676 19.5628 13.4984 21.7509 13.4984C23.9389 13.4984 26.0373 14.3676 27.5845 15.9148C29.1317 17.462 30.0009 19.5604 30.0009 21.7484Z" fill="white"/>
</svg>
