<svg width="48" height="48" viewBox="0 0 48 48" fill="none" xmlns="http://www.w3.org/2000/svg">
<rect width="48" height="48" fill="#001855"/>
<path d="M23.25 15.75C23.25 15.5511 23.329 15.3603 23.4697 15.2197C23.6103 15.079 23.8011 15 24 15H34.5C34.6989 15 34.8897 15.079 35.0303 15.2197C35.171 15.3603 35.25 15.5511 35.25 15.75V17.25C35.25 17.4489 35.171 17.6397 35.0303 17.7803C34.8897 17.921 34.6989 18 34.5 18H24C23.8011 18 23.6103 17.921 23.4697 17.7803C23.329 17.6397 23.25 17.4489 23.25 17.25V15.75ZM12.75 30C12.75 28.8065 13.2241 27.6619 14.068 26.818C14.9119 25.9741 16.0565 25.5 17.25 25.5C18.4435 25.5 19.5881 25.9741 20.432 26.818C21.2759 27.6619 21.75 28.8065 21.75 30C21.75 31.1935 21.2759 32.3381 20.432 33.182C19.5881 34.0259 18.4435 34.5 17.25 34.5C16.0565 34.5 14.9119 34.0259 14.068 33.182C13.2241 32.3381 12.75 31.1935 12.75 30ZM23.25 27.75C23.25 27.5511 23.329 27.3603 23.4697 27.2197C23.6103 27.079 23.8011 27 24 27H34.5C34.6989 27 34.8897 27.079 35.0303 27.2197C35.171 27.3603 35.25 27.5511 35.25 27.75V29.25C35.25 29.4489 35.171 29.6397 35.0303 29.7803C34.8897 29.921 34.6989 30 34.5 30H24C23.8011 30 23.6103 29.921 23.4697 29.7803C23.329 29.6397 23.25 29.4489 23.25 29.25V27.75ZM23.25 20.25C23.25 20.0511 23.329 19.8603 23.4697 19.7197C23.6103 19.579 23.8011 19.5 24 19.5H31.5C31.6989 19.5 31.8897 19.579 32.0303 19.7197C32.171 19.8603 32.25 20.0511 32.25 20.25C32.25 20.4489 32.171 20.6397 32.0303 20.7803C31.8897 20.921 31.6989 21 31.5 21H24C23.8011 21 23.6103 20.921 23.4697 20.7803C23.329 20.6397 23.25 20.4489 23.25 20.25ZM23.25 32.25C23.25 32.0511 23.329 31.8603 23.4697 31.7197C23.6103 31.579 23.8011 31.5 24 31.5H31.5C31.6989 31.5 31.8897 31.579 32.0303 31.7197C32.171 31.8603 32.25 32.0511 32.25 32.25C32.25 32.4489 32.171 32.6397 32.0303 32.7803C31.8897 32.921 31.6989 33 31.5 33H24C23.8011 33 23.6103 32.921 23.4697 32.7803C23.329 32.6397 23.25 32.4489 23.25 32.25ZM17.25 13.5C16.6591 13.5 16.0739 13.6164 15.5279 13.8425C14.982 14.0687 14.4859 14.4002 14.068 14.818C13.6502 15.2359 13.3187 15.732 13.0925 16.2779C12.8664 16.8239 12.75 17.4091 12.75 18C12.75 18.5909 12.8664 19.1761 13.0925 19.7221C13.3187 20.268 13.6502 20.7641 14.068 21.182C14.4859 21.5998 14.982 21.9313 15.5279 22.1575C16.0739 22.3836 16.6591 22.5 17.25 22.5C18.4435 22.5 19.5881 22.0259 20.432 21.182C21.2759 20.3381 21.75 19.1935 21.75 18C21.75 16.8065 21.2759 15.6619 20.432 14.818C19.5881 13.9741 18.4435 13.5 17.25 13.5ZM17.25 20.25C16.6533 20.25 16.081 20.0129 15.659 19.591C15.2371 19.169 15 18.5967 15 18C15 17.4033 15.2371 16.831 15.659 16.409C16.081 15.9871 16.6533 15.75 17.25 15.75C17.8467 15.75 18.419 15.9871 18.841 16.409C19.2629 16.831 19.5 17.4033 19.5 18C19.5 18.5967 19.2629 19.169 18.841 19.591C18.419 20.0129 17.8467 20.25 17.25 20.25Z" fill="white"/>
</svg>
